<?xml version="1.0" standalone="no"?>
<!DOCTYPE svg PUBLIC "-//W3C//DTD SVG 20010904//EN"
 "http://www.w3.org/TR/2001/REC-SVG-20010904/DTD/svg10.dtd">
<svg version="1.0" xmlns="http://www.w3.org/2000/svg"
 width="260.000000pt" height="260.000000pt" viewBox="0 0 260.000000 260.000000"
 preserveAspectRatio="xMidYMid meet">
<metadata>
Created by potrace 1.11, written by Peter Selinger 2001-2013
</metadata>
<g transform="translate(0.000000,260.000000) scale(0.100000,-0.100000)"
fill="#000000" stroke="none">
<path d="M122 1403 c3 -522 4 -560 21 -585 32 -47 84 -59 241 -56 l140 3 1 40
c2 62 -1 65 -71 65 -101 0 -94 -41 -94 567 l0 523 -120 0 -121 0 3 -557z"/>
<path d="M1621 1950 c-44 -10 -81 -39 -106 -81 -19 -33 -20 -55 -23 -571 l-3
-538 121 0 120 0 0 310 0 310 88 0 87 0 1 60 0 60 -88 0 -89 0 1 158 c2 195 0
192 117 192 48 0 83 4 84 10 0 6 1 24 1 40 0 64 10 60 -139 59 -76 -1 -153 -5
-172 -9z"/>
<path d="M2175 1945 c-46 -16 -100 -73 -108 -113 -3 -15 -6 -262 -7 -549 l0
-523 120 0 120 0 0 310 0 310 88 0 88 0 -1 58 0 57 -87 3 -88 3 0 152 c0 197
0 197 116 197 l84 0 1 30 c1 17 2 40 2 53 1 22 0 22 -143 24 -105 2 -156 -2
-185 -12z"/>
<path d="M639 1458 c-2 -178 2 -452 7 -484 22 -142 142 -229 307 -223 146 6
244 67 274 171 7 23 12 149 12 308 l2 270 -61 0 -60 0 0 -261 c0 -244 -1 -263
-20 -293 -49 -80 -159 -75 -200 9 -18 38 -20 61 -20 293 l0 252 -120 0 -120 0
-1 -42z"/>
</g>
</svg>
